<svg width="512" height="512" viewBox="0 0 512 512" fill="none" xmlns="http://www.w3.org/2000/svg">
  <defs>
    <linearGradient id="grad1" x1="0%" y1="0%" x2="100%" y2="100%">
      <stop offset="0%" style="stop-color:#3b82f6;stop-opacity:1" />
      <stop offset="100%" style="stop-color:#6366f1;stop-opacity:1" />
    </linearGradient>
    <filter id="dropShadow" x="-20%" y="-20%" width="140%" height="140%">
      <feGaussianBlur in="SourceAlpha" stdDeviation="15" />
      <feOffset dx="0" dy="10" result="offsetblur" />
      <feComponentTransfer>
        <feFuncA type="linear" slope="0.3" />
      </feComponentTransfer>
      <feMerge>
        <feMergeNode />
        <feMergeNode in="SourceGraphic" />
      </feMerge>
    </filter>
  </defs>
  
  <rect x="32" y="32" width="448" height="448" rx="96" fill="url(#grad1)" filter="url(#dropShadow)" />
  
  <path d="M256 113C177 113 113 177 113 256C113 319.2 154 372.8 210.8 391.6C218 393 220.6 388.6 220.6 384.8C220.6 381.4 220.4 372.4 220.4 360.4C180.6 369 172.2 341.2 172.2 341.2C165.6 324.6 156.2 320.2 156.2 320.2C143.2 311.4 157.2 311.6 157.2 311.6C171.6 312.6 179.2 326.4 179.2 326.4C192 348.2 212.8 342 221 338.2C222.2 329 225.8 322.6 229.8 319C198 315.4 164.6 303.2 164.6 248.6C164.6 233 170.2 220.2 179.4 210.2C177.8 206.6 173 192 180.8 172.2C180.8 172.2 192.8 168.4 220.2 187C231.6 183.8 243.8 182.2 256 182.2C268.2 182.2 280.4 183.8 291.8 187C319.2 168.4 331.2 172.2 331.2 172.2C339 192 334.2 206.6 332.6 210.2C341.8 220.2 347.4 233 347.4 248.6C347.4 303.4 313.8 315.4 281.8 319C286.8 323.4 291.4 332 291.4 345.2C291.4 364.2 291.2 379.4 291.2 384.8C291.2 388.6 293.8 393 301.2 391.6C357.8 372.8 399 319.2 399 256C399 177 335 113 256 113Z" fill="white"/>
</svg>